<svg width="400" height="44" fill="none" xmlns="http://www.w3.org/2000/svg"><path d="M29.86 15.95c0 .29-.055.592-.165.902a3.94 3.94 0 01-.355.847 1.688 1.688 0 00-.656.246 1.87 1.87 0 01-.438.246 5.66 5.66 0 01-.848.055 6.57 6.57 0 00-.847 0 20.58 20.58 0 00-1.477.164c-.474.073-.948.164-1.422.274a.243.243 0 00-.109.027c-.037 0-.055.018-.055.055 0 .036.01.073.028.109a.242.242 0 01.027.11c0 .054-.055.081-.164.081-.2 0-.337-.063-.41-.191a58.7 58.7 0 00-1.75.465l-1.75.437-.875.164a8.298 8.298 0 00-.848.22c-.146.036-.292.1-.437.19l-.438.274a1.27 1.27 0 00-.246-.027.895.895 0 00-.219-.028c-.31 0-.638.064-.984.192a2.81 2.81 0 00-.902.465h-.192c-.182 0-.31-.028-.383-.082-.164-.019-.264.036-.3.164a.758.758 0 01-.192.3c-.62.055-1.23.164-1.832.328-.601.165-1.194.347-1.777.547-.584.183-1.176.374-1.778.575-.583.182-1.175.328-1.777.437-.073.365-.11.784-.11 1.258 0 .364.028.784.083 1.258.073.474.218.875.437 1.203v.055c0 .09-.036.154-.11.19-.072.037-.109.101-.109.192 0 .474.046.92.137 1.34.11.42.219.83.328 1.23.11.402.21.803.301 1.204.11.4.164.811.164 1.23 0 .11-.009.21-.027.301 0 .11-.01.219-.028.328a.91.91 0 00.274.41c.128.11.237.237.328.383.018.091.027.173.027.246v.274c0 .31-.036.583-.109.82a3.542 3.542 0 01-.273.656 7.12 7.12 0 01-.356.63 6.469 6.469 0 00-.355.71 2.358 2.358 0 01-.438.055 1.06 1.06 0 01-.683-.219 2.219 2.219 0 01-.438-.547c-.128-.2-.255-.41-.383-.629a1.797 1.797 0 00-.41-.547c.018-.09.027-.173.027-.246a.979.979 0 00.028-.246c0-.364-.064-.72-.192-1.066a7.884 7.884 0 00-.382-.985 12.239 12.239 0 00-.657-3.609 7.583 7.583 0 00.11-1.258c0-.528-.028-1.057-.082-1.586a9.22 9.22 0 01-.028-1.586 1.134 1.134 0 00-.164-.218 1.073 1.073 0 01-.136-.247h-.11c-.273 0-.538.028-.793.082a5.32 5.32 0 01-.765.055h-.247a5.343 5.343 0 00-.246-.055 2.18 2.18 0 01-.465-.683 1.993 1.993 0 01-.164-.793c0-.401.11-.766.329-1.094.455-.11.902-.237 1.34-.383.455-.164.893-.355 1.312-.574.055-.273.082-.547.082-.82.018-.274.118-.529.3-.766a.931.931 0 00-.273-.383.653.653 0 01-.164-.437c0-.091.018-.21.055-.356.182-.2.31-.455.383-.765.073-.31.136-.638.191-.985l.164-1.039c.073-.346.192-.656.356-.93a3.517 3.517 0 01-.082-.464 4.993 4.993 0 01-.028-.492 8 8 0 01.028-.657c.036-.237.09-.455.164-.656-.2-.237-.365-.51-.492-.82a2.632 2.632 0 01-.192-.957c0-.602.292-.985.875-1.149a2.627 2.627 0 00-.055-.191v-.164c0-.164.046-.32.137-.465a2.45 2.45 0 00.219-.437 1.737 1.737 0 01-.137-.602c0-.146.027-.273.082-.383a2.7 2.7 0 00.137-.41c.055-.182.091-.346.11-.492.036-.146.09-.274.163-.383a.706.706 0 01.274-.246c.127-.055.319-.082.574-.082.401 0 .784.128 1.148.383.383.237.675.51.875.82a1.98 1.98 0 00.52-.11c.164-.072.31-.136.437-.19.146-.055.292-.101.438-.137.164-.055.355-.073.574-.055a.409.409 0 01.274-.246c.146-.055.291-.091.437-.11a2.7 2.7 0 00.41-.136.416.416 0 00.246-.301.4.4 0 00.246.082c.092 0 .183-.01.274-.027a.803.803 0 01.3-.055c.11 0 .201.036.274.11a5.51 5.51 0 011.504-.548 8.359 8.359 0 011.613-.218 13.085 13.085 0 013.965-1.422 23.494 23.494 0 014.211-.383h.574c.2-.018.392-.01.575.027.2.037.419.1.656.192.255.09.501.2.738.328.255.127.492.273.711.437.219.146.401.283.547.41.146.329.219.648.219.957 0 .146-.01.292-.028.438a2.361 2.361 0 00.11 1.148.96.96 0 00-.274-.027c-.164 0-.3.037-.41.11-.11.072-.21.154-.3.246a3.33 3.33 0 01-.274.246c-.073.073-.146.109-.219.109a.846.846 0 01-.383-.082 4.482 4.482 0 00-.3-.164.967.967 0 00-.301-.164.657.657 0 00-.383-.055v-.11c0-.2-.064-.327-.192-.382a.794.794 0 01-.3-.3 6.323 6.323 0 01-.82-.11 3.775 3.775 0 00-.794-.082c-.364 0-.647.127-.847.383a1.069 1.069 0 01-.246-.137c-.055-.055-.137-.073-.246-.055h-.082c-.985 0-1.951.11-2.899.328-.948.2-1.887.456-2.816.766-.93.292-1.86.61-2.79.957-.929.346-1.859.647-2.788.902-.22.292-.447.51-.684.657a6.17 6.17 0 01-.71.328c-.22.09-.438.182-.657.273a1.46 1.46 0 00-.574.438c-.146.2-.265.483-.356.847-.073.347-.091.83-.055 1.45a.705.705 0 00-.164.355l-.054.383a2.28 2.28 0 01-.082.328.75.75 0 01-.192.3 5.658 5.658 0 01.11 1.095 6.74 6.74 0 01-.383 2.242.91.91 0 01.137.492c0 .2-.028.383-.082.547a1.723 1.723 0 00-.083.547c0 .2.037.364.11.492.11 0 .173.036.191.11h.164c.328 0 .611-.083.848-.247a1.32 1.32 0 01.766-.246.44.44 0 01.191.055.441.441 0 00.191.054c.128 0 .183-.045.164-.136-.018-.091.028-.155.137-.192l.985-.164c.62-.11 1.203-.237 1.75-.383a7.774 7.774 0 001.668-.71c.127.054.273.081.437.081.146 0 .3-.018.465-.054.164-.055.319-.082.465-.082.127 0 .228.018.3.054a1.25 1.25 0 01.41-.164c.165-.054.256-.164.274-.328h.055c.073 0 .127.018.164.055.036.036.091.055.164.055h.11c.382-.183.728-.32 1.038-.41.51-.128 1.058-.238 1.641-.329a5.087 5.087 0 001.559-.547 4.81 4.81 0 001.53-.246 4.529 4.529 0 011.532-.273c.237 0 .456.036.656.11.183-.128.392-.22.63-.274.254-.055.464-.155.628-.3.11.017.219.036.328.054h.383a5.46 5.46 0 001.559-.219 9.18 9.18 0 011.558-.355c.128.145.21.3.246.464.055.146.082.301.082.465zm15.405.218a1.16 1.16 0 00-.192.547c-.018.2-.027.383-.027.547v.656c.018.2.027.401.027.602v.41a1.728 1.728 0 01-.164.383 1.733 1.733 0 00-.164.382 5.683 5.683 0 00-.383 2.024v.054c-.09.22-.182.42-.273.602l-.219.547a2.491 2.491 0 00-.191 1.203 6.957 6.957 0 01-1.012 1.75c-.42.51-.83 1.04-1.23 1.586a4.627 4.627 0 00-1.067.574c-.31.237-.61.502-.902.793a18.43 18.43 0 00-1.668.629 5.27 5.27 0 00-1.477.957c-.346.037-.692.091-1.039.164a5.042 5.042 0 00-1.011.328h-.329c-.163 0-.282-.036-.355-.11a2.78 2.78 0 01-.738.274 5.4 5.4 0 01-.766.055 8.77 8.77 0 01-.984-.055c-.31-.054-.63-.11-.957-.164a1.644 1.644 0 00-.766-.574c-.328-.146-.62-.283-.875-.41-.529-.73-.911-1.431-1.148-2.106a61.16 61.16 0 01-.739-2.324c.037-.255.1-.501.192-.738a2.06 2.06 0 00.11-.82c.327-.948.756-1.805 1.284-2.57a17.835 17.835 0 011.86-2.243c0-.11.018-.2.054-.273.055-.073.064-.183.028-.328.018.018.054.027.11.027.145 0 .236-.037.273-.11a.553.553 0 00.027-.3 9.794 9.794 0 001.777-1.45 7.656 7.656 0 011.86-1.367.907.907 0 01.273-.41c.128-.11.228-.237.3-.383a5.269 5.269 0 001.587-.738c.474-.328.975-.62 1.504-.875.291-.164.565-.273.82-.328.273-.073.565-.146.875-.219.11-.036.21-.064.3-.082a1.53 1.53 0 01.302-.027c.328 0 .647.064.957.191.31.11.628.164.957.164h.218l.22-.054c.309.382.7.674 1.175.875.11.273.237.51.383.71l.492.602c.164.182.31.392.437.629.146.219.237.483.274.793zM42.53 17.59c0-.091-.01-.173-.028-.246a2.616 2.616 0 01-.52-.219 1.108 1.108 0 00-.546-.137.965.965 0 00-.383.082c-.018-.127-.073-.218-.164-.273a.955.955 0 00-.274-.137.85.85 0 00-.3-.11.73.73 0 01-.247-.163 4.572 4.572 0 00-.19-.438.575.575 0 00-.329-.355c-.164.164-.355.3-.574.41a27.09 27.09 0 01-.684.273c-.219.091-.437.2-.656.328-.2.128-.374.283-.52.465h-.492c-.11.2-.264.356-.465.465a1.42 1.42 0 00-.52.41 4.018 4.018 0 00-.82.547c-.236.2-.473.42-.71.656a24.72 24.72 0 00-.711.684 6.068 6.068 0 01-.711.656 7.22 7.22 0 01-.793 1.34 24.78 24.78 0 00-.793 1.121 8.097 8.097 0 00-.63 1.258c-.163.438-.245.984-.245 1.64v.274c0 .091.009.182.027.274.237.255.428.528.574.82.164.291.429.501.793.629.365.146.748.21 1.149.191.419-.018.82.027 1.203.137a10.92 10.92 0 002.515-.793c.82-.383 1.596-.839 2.325-1.367.11-.091.237-.183.383-.274.145-.11.264-.218.355-.328.091-.091.164-.191.219-.3.073-.11.146-.21.218-.301a8.21 8.21 0 01.493-.711c.182-.237.373-.456.574-.657.091-.4.21-.783.355-1.148a73.7 73.7 0 01.438-1.121 8.01 8.01 0 00.355-1.121c.11-.383.164-.784.164-1.203 0-.091-.009-.192-.027-.301 0-.11-.01-.21-.027-.3.146-.201.219-.42.219-.657zm42.393 9.652c-.036.274-.137.483-.3.63a3.036 3.036 0 01-.52.41 1.393 1.393 0 00-.273-.028 1.018 1.018 0 00-.247-.027 4.732 4.732 0 00-1.613.218 8.502 8.502 0 01-1.531.356 2.655 2.655 0 01-.52.055 1.33 1.33 0 00-.465.027c-.583.091-1.203.164-1.859.219-.656.054-1.312.127-1.969.218a22.65 22.65 0 00-1.941.301 8.83 8.83 0 00-1.75.492l-.164-.11a.262.262 0 00-.192-.081c-.182 0-.355.027-.52.082a1.133 1.133 0 01-.491.055 2.228 2.228 0 01-.602.246c-.2.036-.41.073-.629.11-.2.017-.4.054-.601.108-.2.055-.392.155-.575.301a1.218 1.218 0 00-.546-.11c-.2-.017-.338-.09-.41-.218a4.2 4.2 0 01-1.34.383c-.456.055-.92.073-1.395.055a8.996 8.996 0 01-1.066-.137 9.665 9.665 0 01-1.203-.3 9.018 9.018 0 01-1.121-.493 2.337 2.337 0 01-.794-.711 1.8 1.8 0 01-.273-.602.745.745 0 00-.383-.492c.055-.42.119-.83.192-1.23.073-.401.145-.811.218-1.23a13.262 13.262 0 001.97-2.079c.345-.164.664-.364.956-.601.31-.237.61-.474.903-.711.31-.256.61-.502.902-.739.31-.237.638-.446.984-.629a.759.759 0 01.219-.3c.11-.091.219-.174.328-.246.11-.092.21-.183.3-.274a.947.947 0 00.192-.383 6.332 6.332 0 001.668-1.449 4.47 4.47 0 00.93-1.969 2.296 2.296 0 00-1.066-.492 8.277 8.277 0 00-1.204-.191 12.077 12.077 0 00-1.148 0 8.464 8.464 0 01-1.176-.028 5.69 5.69 0 01-1.258.247l-1.257.109c-.42.018-.839.073-1.258.164a3.691 3.691 0 00-1.176.438.897.897 0 01-.219-.028.606.606 0 00-.191-.027c-.584-.018-1.13.1-1.64.355-.511.237-1.012.474-1.505.711a.42.42 0 00-.054.164c0 .11.018.219.054.328a.573.573 0 01.082.301c-.018.018-.027.037-.027.055 0 .018-.01.036-.027.055a.976.976 0 01-.082.246 1.926 1.926 0 01-.082.246 5.87 5.87 0 00-.328 1.722c-.019.474-.019.94 0 1.395.018.456.018.92 0 1.394a7.71 7.71 0 01-.274 1.641c.091.438.173.902.246 1.395a19.222 19.222 0 00.656 2.816c.164.438.374.857.63 1.258-.019.036-.01.064.027.082a.242.242 0 00.109.027h.219c.09 0 .127.037.11.11a.69.69 0 01.081.164.309.309 0 00.11.109c.036.055.036.128 0 .219a2.39 2.39 0 01-.274 1.011c-.164.31-.264.648-.3 1.012-.22.055-.42.082-.602.082a1.574 1.574 0 01-.82-.273 3.081 3.081 0 01-.657-.547c-.2-.219-.392-.438-.574-.656a3.132 3.132 0 00-.602-.602 41.701 41.701 0 01-.382-1.695c-.11-.62-.301-1.149-.575-1.586.073-.164.11-.365.11-.602a3.481 3.481 0 00-.11-1.066 3.68 3.68 0 01-.054-1.094c0-.2.018-.4.054-.601.055-.201.091-.401.11-.602.018-.31-.019-.61-.11-.902a2.98 2.98 0 01-.082-.903c.019-.146.046-.282.082-.41.055-.146.128-.273.22-.383a1.101 1.101 0 01-.083-.629c.018-.31.055-.601.11-.875.054-.273.09-.546.109-.82 0-.146-.01-.282-.027-.41a2.724 2.724 0 00-.082-.41l-.247-.082a.728.728 0 00-.328.082 1.273 1.273 0 00-.246.191l-.191.192a.293.293 0 01-.164.054h-.137a.243.243 0 00-.11-.027c-.036 0-.109.036-.218.11-.091.072-.21.154-.356.245a4.536 4.536 0 00-.382.247 1.309 1.309 0 01-.301.136c-.2-.036-.365-.1-.492-.191-.11-.11-.22-.21-.328-.3a1.41 1.41 0 00-.301-.274.523.523 0 00-.41-.11.783.783 0 01-.082-.355 1.349 1.349 0 010-.383v-.438c.127-.236.3-.428.519-.574.2-.164.42-.3.656-.41l.711-.328c.237-.11.456-.246.657-.41h.246c.328.018.61-.046.847-.192.255-.145.492-.31.711-.492l.656-.601c.237-.2.493-.356.766-.465.2.091.41.173.629.246.219.055.447.091.684.11.236 0 .483-.037.738-.11a1.09 1.09 0 00.601-.41c.091.036.164.064.22.082h.245a2.11 2.11 0 00.82-.11c.274-.109.538-.237.794-.382.364.018.72 0 1.066-.055.364-.073.72-.146 1.066-.219.365-.073.72-.137 1.067-.191a4.43 4.43 0 011.093-.082 7.258 7.258 0 001.778-.164 6.454 6.454 0 011.777-.137c.42.018.83.055 1.23.11.42.036.84.045 1.258.027.237.109.447.21.63.3.2.073.446.092.738.055a9.571 9.571 0 011.586 1.723v.465a4.72 4.72 0 01-.22 1.23c-.127.401-.282.802-.464 1.203-.164.383-.346.766-.547 1.149-.2.364-.392.729-.574 1.093a563.542 563.542 0 01-3.555 3.2 73.99 73.99 0 01-3.664 3.062 1.95 1.95 0 01-.164.492 1.95 1.95 0 00-.11.465c0 .091.01.164.028.219.128.036.237.11.328.219.11.09.146.218.11.383h.246c.09 0 .136.036.136.109l.438.027a13.12 13.12 0 002.078-.055 80.325 80.325 0 002.078-.246c.711-.09 1.413-.173 2.106-.246a19.972 19.972 0 012.078-.164c.164-.054.337-.1.52-.136.181-.037.346-.11.491-.22h.082c.128 0 .22.037.274.11a.515.515 0 00.3.137.733.733 0 00.274-.055 2.15 2.15 0 01.328-.082c.255-.073.52-.118.793-.137a12.1 12.1 0 00.848-.082 46.075 46.075 0 013.144-.164 16.605 16.605 0 003.118-.41.743.743 0 00.382.274c.164.036.338.082.52.136.182.037.346.082.492.137a.493.493 0 01.328.328zM125.36 8.184a11.02 11.02 0 01-.219.492c-.109.237-.164.392-.164.465 0 .145-.009.337-.027.574 0 .219.073.355.219.41-.201.42-.328.848-.383 1.285-.037.42-.055.857-.055 1.313 0 .437-.009.884-.027 1.34a5.102 5.102 0 01-.219 1.285c.073.109.091.246.055.41a.374.374 0 00.137.355 1.077 1.077 0 00-.165.438 2.94 2.94 0 00-.027.41c0 .292.027.574.082.848a1.7 1.7 0 00-.301.984c.019.346.028.702.028 1.066 0 .31-.046.611-.137.903a3.703 3.703 0 00-.109.902c0 .091.009.173.027.246.018.073.027.155.027.246s-.036.155-.109.192c-.055.018-.082.1-.082.246 0 .674-.046 1.33-.137 1.968a22.12 22.12 0 01-.355 1.86 38.453 38.453 0 01-.438 1.832c-.164.62-.31 1.249-.437 1.887a2.393 2.393 0 00-.465.738 1.222 1.222 0 01-.52.656 7.118 7.118 0 01-.902 1.64c-.346.493-.738.958-1.176 1.395a21.49 21.49 0 01-1.312 1.258c-.456.42-.903.848-1.34 1.285h-.547a4.715 4.715 0 01-.52.028c-.401 0-.802-.019-1.203-.055a7.537 7.537 0 01-1.148-.191c-.073-.256-.219-.429-.438-.52a1.49 1.49 0 01-.546-.355 1.664 1.664 0 01-.411-.547c-.091-.2-.282-.338-.574-.41a5.983 5.983 0 00-.437-.958 58.41 58.41 0 01-.547-1.12 25.47 25.47 0 01-.492-1.094c-.128-.365-.192-.675-.192-.93 0-.091.009-.173.028-.246.036-.091.063-.182.082-.274a1.01 1.01 0 01-.219-.492 6.529 6.529 0 01-.082-.601c0-.22-.018-.42-.055-.602a.765.765 0 00-.246-.465 1.657 1.657 0 00-.52.547 6.507 6.507 0 00-.355.711l-.273.766a4.269 4.269 0 01-.329.71 4.055 4.055 0 00-.683.684c-.182.255-.374.51-.574.766-.183.273-.383.52-.602.738a2.638 2.638 0 01-.766.574 1.736 1.736 0 01-.41.82 3.968 3.968 0 01-.601.63c-.219.2-.429.4-.629.601a1.975 1.975 0 00-.438.793 6.86 6.86 0 00-1.039.629c-.383.292-.774.583-1.176.875a7.353 7.353 0 01-1.175.738c-.383.219-.72.328-1.012.328-.237 0-.465-.027-.684-.082-.2-.036-.41-.082-.629-.136l-.656-.164a2.826 2.826 0 00-.683-.028 3.774 3.774 0 01-.793-1.258 6.675 6.675 0 00-.684-1.285c-.091-.547-.182-1.103-.273-1.668a9.957 9.957 0 01-.137-1.64c0-.31.036-.602.11-.875.072-.256.109-.52.109-.793a.542.542 0 00-.055-.246l-.055-.274a4.16 4.16 0 00.301-.793c.073-.291.128-.583.164-.875.055-.291.11-.574.164-.847a3.91 3.91 0 01.246-.82c.037-.22-.027-.384-.191-.493a.886.886 0 00.246-.41c.037-.146.055-.292.055-.438.018-.145.027-.3.027-.464 0-.165.018-.32.055-.465.018-.073.063-.183.136-.328l.246-.465a4.85 4.85 0 00.22-.438c.072-.146.109-.255.109-.328a.922.922 0 00-.11-.41c.073-.365.192-.72.356-1.066.182-.347.319-.702.41-1.067.091-.364.146-.683.164-.957.018-.291.1-.629.246-1.012a.305.305 0 00.027-.136c0-.073-.027-.119-.082-.137a.264.264 0 01-.136-.11 5.61 5.61 0 00.492-1.34c.127-.491.228-.993.3-1.503.092-.51.174-1.012.247-1.504a8.86 8.86 0 01.328-1.45c-.055-.364-.1-.738-.137-1.12a12.723 12.723 0 01-.055-1.149c0-.42.037-.847.11-1.285.091-.437.282-.82.574-1.148.146 0 .3-.01.465-.028.182-.018.346-.027.492-.027.219 0 .456.055.711.164.128.583.292 1.158.492 1.723a5.34 5.34 0 01.301 1.804c0 .31-.036.62-.109.93l-.192.902c-.055.292-.1.593-.137.903-.036.291-.027.583.028.875a1.907 1.907 0 00-.356.957c-.018.346-.027.674-.027.984-.182.255-.319.51-.41.766a5.72 5.72 0 00-.219.793l-.11.793a12.29 12.29 0 01-.136.82c-.037.091-.1.2-.191.328-.073.128-.11.219-.11.274 0 .127.037.255.11.382a.899.899 0 01-.11.137c-.036.018-.064.064-.082.137-.054.2-.1.42-.136.656a3.49 3.49 0 01-.11.629 8.642 8.642 0 01-.383 1.34c-.146.437-.3.875-.465 1.312 0 .365-.018.657-.054.875a2.94 2.94 0 01-.11.602 4.442 4.442 0 01-.164.547c-.054.182-.11.419-.164.71-.054.274-.11.611-.164 1.012-.036.401-.082.82-.136 1.258a29.164 29.164 0 00-.11 2.297c0 .529.046 1.04.137 1.531.11.51.291.994.547 1.45h.82c.128.018.246.054.355.109.128-.037.192-.091.192-.164v-.219c0-.055.045-.128.137-.219l.191.028c.182 0 .346-.028.492-.082.164-.055.328-.128.492-.22a5.407 5.407 0 011.203-1.202 6.27 6.27 0 001.258-1.149.707.707 0 00.082-.52c.219-.036.383-.118.493-.245.127-.128.246-.265.355-.41.109-.146.219-.283.328-.41a.983.983 0 01.492-.301c.091-.164.173-.338.246-.52.073-.2.146-.392.219-.574a3.23 3.23 0 01.301-.492 1.29 1.29 0 01.492-.383c.31-.693.574-1.404.793-2.133a6.898 6.898 0 01.984-2.05c0-.238.01-.456.028-.657.018-.2.009-.41-.028-.629.456-.62.748-1.267.875-1.941.128-.675.192-1.386.192-2.133 0-.62.2-1.048.601-1.285.42-.237.912-.356 1.477-.356h.273c.11 0 .21.01.301.028a.57.57 0 00.192.3c.109.055.218.119.328.192v.164c0 .255-.037.492-.11.71-.054.201-.082.42-.082.657 0 .11.019.255.055.438.182.528.319 1.011.41 1.449.11.437.164.948.164 1.531 0 .492-.027.994-.082 1.504-.036.492-.091.984-.164 1.477.11.2.164.41.164.628 0 .146-.018.301-.054.465a3.286 3.286 0 00.109 1.367l.328.875c.128.292.237.584.328.875.091.292.128.584.11.875.309.383.583.775.82 1.176.255.42.565.784.93 1.094.145.036.264.055.355.055a.606.606 0 00.273-.055.614.614 0 00.192-.082l.219-.055c.073 0 .182.01.328.028a5.46 5.46 0 00.902-.82c.273-.292.529-.593.766-.903.255-.31.51-.629.765-.957.256-.328.52-.638.793-.93a29.958 29.958 0 001.285-3.937c.329-1.313.529-2.68.602-4.102 0-.2.046-.3.137-.3.091 0 .173-.064.246-.192v-.766c0-.583.027-1.166.082-1.75a8.143 8.143 0 01.41-1.722 2.682 2.682 0 01-.082-.657c0-.474.036-.93.109-1.367.091-.456.137-.911.137-1.367a3.12 3.12 0 00-.082-.71 1.51 1.51 0 00-.273-.684l-.028-.165c0-.109.037-.2.11-.273a.6.6 0 00.191-.246 1.686 1.686 0 01-.109-.738 5.48 5.48 0 00.054-.766c0-.146-.018-.3-.054-.465a.588.588 0 00-.274-.383c.164-.182.283-.419.356-.71.073-.292.118-.602.136-.93.037-.328.055-.647.055-.957 0-.328.018-.602.055-.82a2.63 2.63 0 01.547-.465c.218-.146.455-.22.711-.22.328 0 .565.12.711.356.145.219.255.492.328.82.073.31.127.63.164.958.054.328.146.592.273.793zm21.339 11.046a14.98 14.98 0 01-.219.52 2.476 2.476 0 00-.164.547 1.629 1.629 0 01-.437.219 6.367 6.367 0 00-.465.136 2.018 2.018 0 00-.465.164.627.627 0 00-.301.274 3.972 3.972 0 00-.082.765c0 .31.055.575.164.793a2.418 2.418 0 00-.109.52 5.296 5.296 0 00-.027.52c0 .601.073 1.203.218 1.804a8.39 8.39 0 01.247 1.777c0 .092-.01.192-.028.301-.018.11-.027.21-.027.301 0 .383.146.638.437.766a.497.497 0 00-.082.246c0 .146.019.273.055.383a.75.75 0 01.027.355c.092.182.183.346.274.492.091.128.155.292.191.492a3.61 3.61 0 01-.465.711 1.69 1.69 0 00-.382.766 1.021 1.021 0 00-.247-.027.49.49 0 00-.3.082.962.962 0 00-.192.191 1.075 1.075 0 01-.136.246.446.446 0 01-.219.192h-.082a.372.372 0 01-.246-.028.521.521 0 00-.164-.027.89.89 0 00-.219.055 1.556 1.556 0 01-.301-.657 3.135 3.135 0 01-.082-.71c0-.256.037-.484.109-.684-.2-.164-.328-.41-.382-.738a6.395 6.395 0 00-.137-.82 22.133 22.133 0 00-.52-1.97 8.938 8.938 0 01-.328-1.968 10.507 10.507 0 01-.027-.739v-1.42c0-.237.009-.465.027-.684 0-.164.009-.319.028-.465.036-.164.054-.328.054-.492a1.06 1.06 0 00-.218-.629 12.398 12.398 0 00-3.692.711 30.805 30.805 0 00-3.445 1.45 9.701 9.701 0 00-.137 1.23c-.018.4-.027.81-.027 1.23v1.203c0 .456.018.839.054 1.149.092.528.356.939.793 1.23.456.274.912.483 1.368.63a2.06 2.06 0 01-.164.71c-.092.182-.21.355-.356.52a5.018 5.018 0 01-.437.437c-.164.146-.329.31-.493.492a1.513 1.513 0 00-.437-.191 1.917 1.917 0 00-.465-.055l-.492-.055a2.39 2.39 0 01-.492-.109l-.602-.82a12.7 12.7 0 00-.656-.82v-.247a3.78 3.78 0 00-.274-1.422 7.636 7.636 0 01-.41-1.394c.055-.164.091-.328.11-.492a4.77 4.77 0 00.027-.52c0-.364-.018-.72-.055-1.066a6.56 6.56 0 01.028-1.04h-.137a1.17 1.17 0 00-.52.137 3.823 3.823 0 00-.546.274l-.493.273a.877.877 0 01-.382.11.523.523 0 01-.165-.028.6.6 0 00-.191-.027c-.091 0-.2.037-.328.11a10.73 10.73 0 00-.41.245l-.492.22a1.221 1.221 0 01-.493.109c-.255 0-.51-.11-.765-.328a1.059 1.059 0 01-.028-.41v-.41c0-.147-.027-.302-.082-.466a1.37 1.37 0 01.52-.547c.2-.145.419-.273.656-.382.219-.128.447-.246.684-.356.237-.127.437-.291.601-.492h.164c.256 0 .483-.055.684-.164.219-.11.465-.155.738-.137.091-.036.155-.173.192-.41l.109.027a1.56 1.56 0 001.066-.41c.201-1.13.365-2.27.493-3.418.127-1.148.191-2.297.191-3.445a.587.587 0 00-.109-.328 1.671 1.671 0 01-.055-.41v-.41c0-.201.009-.41.027-.63.019-.218.064-.437.137-.656a1.1 1.1 0 01.574-.164c.237 0 .465.037.684.11.237.054.465.1.683.136.165.165.283.347.356.547.091.2.146.41.164.63.018.2.018.41 0 .628v.602c0 .4.046.793.137 1.175.091.383.136.757.136 1.122a.26.26 0 01-.109.218c-.055.037-.082.155-.082.356 0 .2.018.41.055.629.036.218.054.437.054.656 0 .255-.036.52-.109.793-.073.273-.137.538-.191.793a45.744 45.744 0 003.363-.41 16.091 16.091 0 003.281-.875.385.385 0 00.027-.164c0-.11-.009-.22-.027-.328a2.191 2.191 0 01-.027-.356c0-.219.073-.392.219-.52-.092-.51-.155-1.02-.192-1.53a21.76 21.76 0 01-.055-1.532v-1.559c0-.51-.009-1.02-.027-1.53a.863.863 0 01.465-.138c.2 0 .383.055.547.165.182.09.392.136.629.136a.911.911 0 00.41-.082c.2.183.337.42.41.711.073.292.137.593.191.902l.165.93c.072.292.209.529.41.711l.027.082c0 .073-.036.128-.109.164-.073.037-.11.11-.11.219v.11c.073.291.128.592.164.902.037.31.064.629.082.957.037.31.082.62.137.93.055.291.155.564.301.82.091-.018.21-.028.355-.028.365 0 .647.128.848.383.219.237.41.483.574.738zm24.894 10.774a1.147 1.147 0 01-.355.629 1.961 1.961 0 01-.602.355 3.388 3.388 0 01-.738.192 8.624 8.624 0 01-.657.027h-.273a1.019 1.019 0 00-.246-.027c-.091 0-.137.045-.137.136 0 .092-.045.155-.137.192a1.557 1.557 0 00-.273-.082 1.389 1.389 0 00-.273-.028 2.7 2.7 0 00-.383.028c-.11.018-.219.027-.328.027a.757.757 0 01-.328-.055l-.165-.109a1.093 1.093 0 00-.136-.164.405.405 0 00-.192-.137c-.127-.054-.237-.064-.328-.027-.073.036-.191-.018-.355-.164a2.85 2.85 0 01-.574-.656 36.31 36.31 0 01-.438-.848 20.532 20.532 0 00-.465-.875 3.494 3.494 0 00-.574-.766h-.219c-.328 0-.556.137-.683.41a2.405 2.405 0 01-.274-.19 1.142 1.142 0 00-.301-.22 13.77 13.77 0 01-1.312.328 6.965 6.965 0 01-1.367.137h-.383c-.109 0-.228-.018-.356-.055a2.15 2.15 0 00-.492.274.91.91 0 01-.492.137.884.884 0 01-.383-.11c-.109 0-.164.046-.164.137.018.091-.036.137-.164.137h-.246c-.255 0-.51.009-.766.027a9.643 9.643 0 01-.738.027 4.39 4.39 0 01-1.066-.136.575.575 0 01-.301.082.344.344 0 00-.164.191l-.11.219a.685.685 0 01-.164.164c-.054.036-.136.046-.246.027a.847.847 0 01-.273.52c-.146.127-.219.319-.219.574-.2.11-.364.246-.492.41-.128.164-.255.337-.383.52a5.566 5.566 0 01-.41.52 1.292 1.292 0 01-.492.382c-.091.11-.119.283-.082.52a3.15 3.15 0 01-.739.437 2.051 2.051 0 01-.82.191c-.528 0-.893-.282-1.094-.847 0-.182.019-.374.055-.574.018-.22.055-.42.109-.602.055-.2.137-.374.247-.52a.916.916 0 01.464-.355c0-.164-.054-.273-.164-.328-.109-.073-.155-.191-.136-.355a4.39 4.39 0 001.285-.93c.364-.383.692-.784.984-1.203l.93-1.313c.31-.437.656-.83 1.039-1.176v-.574a4.188 4.188 0 001.066-1.969c.201-.036.328-.127.383-.273a1.15 1.15 0 00.11-.52c.091 0 .145-.036.164-.109.036-.091.118-.118.246-.082.164-.438.346-.838.547-1.203l.601-1.094c.201-.383.374-.775.52-1.176.164-.4.282-.847.355-1.34.255-.018.392-.136.41-.355.037-.237.073-.447.11-.629a2.31 2.31 0 00.601-.902c.146-.346.274-.702.383-1.067.109-.382.228-.756.355-1.12a3.32 3.32 0 01.602-1.012v-.082c0-.092-.036-.146-.109-.165-.073-.036-.11-.1-.11-.19.019-.02.028-.037.028-.056a.97.97 0 00.492-.437.939.939 0 01.492-.465c.383.31.72.501 1.012.574.291.055.674.1 1.148.137.237.255.365.565.383.93.036.346.1.692.191 1.039.146.583.301 1.157.465 1.722.183.547.319 1.112.41 1.696.055.346.155.674.301.984.146.31.246.629.301.957.036.255.036.547 0 .875-.037.31 0 .584.109.82l.192.438c.091.2.164.41.218.629.073.219.137.437.192.656.146.547.273 1.14.383 1.777.127.62.319 1.185.574 1.696.091.182.228.31.41.383.201.072.419.127.656.164.237.018.465.027.684.027.237-.018.437-.027.601-.027h.274c.109 0 .219.018.328.054a.88.88 0 01.109.383.657.657 0 01-.218.52.568.568 0 00-.219.437c0 .091.036.192.109.3a1.458 1.458 0 00-.328-.026c-.419 0-.829.072-1.23.218.146.31.337.575.574.793.255.2.519.392.793.575a.907.907 0 01.574-.22c.219 0 .419.055.602.165.2.091.41.137.629.137.164 0 .282-.028.355-.082.146.164.264.337.356.52.091.163.209.318.355.464zm-8.559-4.375c-.036-.31-.1-.529-.191-.656a2.782 2.782 0 01-.191-.52 5.375 5.375 0 01-.164-.82 6.405 6.405 0 00-.11-.848 33.77 33.77 0 00-.437-1.86 12.248 12.248 0 00-.575-1.804c.073-.11.11-.21.11-.3v-.083a1.64 1.64 0 01-.356-.656 58.37 58.37 0 00-.218-.793 2.915 2.915 0 00-.247-.738 1.193 1.193 0 00-.464-.574.841.841 0 00-.082.382c0 .128.009.246.027.356.036.11.055.228.055.355a.877.877 0 00-.411.438.884.884 0 01-.382.437 7.696 7.696 0 01-.629 1.668 33.73 33.73 0 01-.875 1.532c-.292.51-.574 1.03-.848 1.558a8.339 8.339 0 00-.656 1.613 1.274 1.274 0 00-.492.63c-.073.255-.11.51-.11.765.164.091.347.146.547.164h.629c.201 0 .392.018.574.055a.946.946 0 01.492.273c.237-.073.493-.118.766-.137.292-.036.529-.118.711-.246.365.128.757.192 1.176.192.219 0 .428-.018.629-.055a6.23 6.23 0 00.629-.137c.164.037.291.1.382.192.092.073.228.1.411.082a.438.438 0 00.164-.219.473.473 0 01.136-.246zm33.289-11.211a1.926 1.926 0 01-.356.656l-.465.574a3.397 3.397 0 00-.382.602c-.092.2-.119.438-.082.71h-.137a.45.45 0 00-.137-.026c-.292 0-.519.072-.684.218a1.848 1.848 0 01-.601.328 1.523 1.523 0 00-.137-.3.414.414 0 00-.246-.22c-.437.092-.875.165-1.312.22-.438.036-.875.09-1.313.164a3.68 3.68 0 00-.601.164c-.201.055-.411.11-.629.164-.11.036-.228.055-.356.055a1.343 1.343 0 00-.383 0 22.04 22.04 0 00-1.422.109 3.08 3.08 0 00-1.367.41 5.389 5.389 0 00-.574-.082 6.603 6.603 0 00-.601-.027 8.6 8.6 0 00-1.45.136c-.51.073-.966.228-1.367.465a1.441 1.441 0 00-.301-.082 1.696 1.696 0 00-.328-.027c-.036 0-.064.009-.082.027h-.082c-.018.164 0 .328.055.492a.834.834 0 00.355.356c-.073.2-.109.42-.109.656 0 .31.018.62.055.93.054.31.082.62.082.93 0 .346-.046.62-.137.82.182.547.273 1.13.273 1.75 0 .219-.018.437-.054.656-.019.2-.028.42-.028.656 0 .2.073.365.219.492.146.11.219.265.219.465a.479.479 0 01-.055.22c.255-.056.501-.128.738-.22.237-.109.483-.164.739-.164.146 0 .282.028.41.082.146.055.273.128.383.22a7.277 7.277 0 00-.055.3v.902c.018.164.036.347.055.547a3.212 3.212 0 01-.52.684c-.182.2-.31.455-.383.765-.273 0-.519.064-.738.192-.2.11-.392.237-.574.383l-.547.382c-.182.11-.383.164-.602.164-.273 0-.464-.036-.574-.109a1.125 1.125 0 01-.246-.273 2.87 2.87 0 00-.164-.247c-.036-.072-.128-.1-.273-.082a2.013 2.013 0 00-.219-.656 7.072 7.072 0 00-.356-.629c-.109-.2-.228-.4-.355-.601a3.19 3.19 0 01-.246-.657 5.627 5.627 0 01-.137-1.476 3.712 3.712 0 00-.246-1.477 11.045 11.045 0 00.109-1.558c0-.51-.018-1.012-.054-1.504-.019-.51-.037-1.03-.055-1.559a1.231 1.231 0 01-.246-.547c-.018-.218-.037-.428-.055-.628a1.706 1.706 0 00-.191-.165.42.42 0 01-.11-.218 1.484 1.484 0 00-.328-.055c-.255 0-.474.064-.656.191a.847.847 0 01-.465.165 1.49 1.49 0 01-.41-.055 1.387 1.387 0 00-.383-.055c-.109 0-.173.027-.191.082 0 .037-.037.073-.11.11-.054.036-.182.072-.382.109-.201.036-.429.073-.684.11l-.711.054a6.56 6.56 0 01-.437.027c-.292 0-.511-.054-.657-.164a9.634 9.634 0 00-.574-.41.875.875 0 00.055-.219.593.593 0 00-.164-.437c-.11-.128-.164-.237-.164-.328 0-.2.082-.356.246-.465.146-.11.228-.283.246-.52a6.584 6.584 0 011.285-.41c.438-.091.884-.164 1.34-.219.456-.054.902-.118 1.34-.191a6.943 6.943 0 001.34-.355c.127.018.246.036.355.054h.383c.547 0 1.084-.054 1.613-.164a7.318 7.318 0 011.668-.191 3.538 3.538 0 01.875.11c.729-.11 1.449-.229 2.16-.356a41.512 41.512 0 012.242-.329c.365-.036.72-.063 1.067-.082a22.84 22.84 0 001.094-.136.698.698 0 00.273-.082c.073-.055.109-.155.109-.301.164.073.347.11.547.11.31 0 .611-.055.903-.165a2.53 2.53 0 01.902-.164c.073 0 .137.01.191.028h.164c.128 0 .192-.055.192-.165.018-.127.109-.21.273-.246.128-.036.31-.063.547-.082l.738-.054c.274-.037.52-.073.739-.11.237-.054.41-.127.519-.218l.192-.301c.328.018.565.164.711.437.164.255.255.538.273.848.073.073.173.11.301.11.146-.019.273-.028.383-.028h.082zm21.131 18.95c0 .29-.1.555-.301.792-.2.237-.374.465-.519.684a2.01 2.01 0 01-.739.218c-.218.037-.455.1-.711.192-.091.018-.191.082-.3.191a.924.924 0 01-.438-.191 1.537 1.537 0 00-.437-.191 2.84 2.84 0 00-.793-.137c-.31-.018-.538-.11-.684-.274-.255-.255-.474-.592-.656-1.011a9.549 9.549 0 01-.41-1.34 19.698 19.698 0 01-.219-1.395 16.079 16.079 0 01-.055-1.23c0-.584.037-1.167.11-1.75.072-.584.182-1.149.328-1.695v-.356a1.03 1.03 0 00.027-.246.522.522 0 00-.027-.164c0-.055-.028-.1-.082-.137.237-.601.41-1.221.519-1.86.11-.637.192-1.275.246-1.913.073-.657.146-1.304.219-1.942.091-.656.219-1.294.383-1.914-.018-.11-.037-.228-.055-.355v-.356c0-.328.037-.647.11-.957.072-.328.118-.665.136-1.011.018-.11.018-.22 0-.329a2.737 2.737 0 01-.027-.382c0-.802.036-1.586.109-2.352.091-.766.137-1.54.137-2.324 0-.42-.036-.82-.109-1.203a8.844 8.844 0 01-.082-1.203c0-.183.009-.356.027-.52.018-.182.073-.346.164-.492.401-.274.875-.41 1.422-.41.401 0 .747.11 1.039.328a.385.385 0 00-.027.164c0 .091.009.173.027.246.018.073.027.155.027.246v.11a.245.245 0 01-.027.109c.128.219.21.456.246.71.055.238.082.484.082.739 0 .237-.009.474-.027.711a7.909 7.909 0 00-.028.684v.984c.019.328.028.656.028.984 0 .875-.046 1.741-.137 2.598a56.337 56.337 0 00-.164 2.57 12.452 12.452 0 01-.301 2.188c-.146.71-.246 1.43-.301 2.16a3.57 3.57 0 00-.027.437 3.431 3.431 0 01-.219 1.695c-.164.402-.246.83-.246 1.286 0 .219.037.41.11.574-.11.292-.21.638-.301 1.04-.073.4-.146.82-.219 1.257-.055.42-.1.838-.137 1.258a12.08 12.08 0 00-.054 1.066c0 .438.054.884.164 1.34.109.438.291.839.547 1.203a2.3 2.3 0 00.656.082c.255 0 .51.01.765.028.256.018.493.063.711.136a.832.832 0 01.493.438.245.245 0 01.027.11v.081zm28.941-18.95a1.926 1.926 0 01-.356.656l-.465.574a3.402 3.402 0 00-.383.602c-.091.2-.118.438-.082.71h-.136a.456.456 0 00-.137-.026c-.292 0-.52.072-.684.218a1.848 1.848 0 01-.601.328 1.523 1.523 0 00-.137-.3.417.417 0 00-.246-.22 16.41 16.41 0 01-1.313.22c-.437.036-.875.09-1.312.164a3.69 3.69 0 00-.602.164c-.2.055-.41.11-.629.164a1.113 1.113 0 01-.355.055 1.343 1.343 0 00-.383 0 22.04 22.04 0 00-1.422.109 3.08 3.08 0 00-1.367.41 5.426 5.426 0 00-.574-.082 6.625 6.625 0 00-.602-.027c-.437 0-.92.045-1.449.136-.51.073-.966.228-1.367.465a1.441 1.441 0 00-.301-.082 1.696 1.696 0 00-.328-.027c-.036 0-.064.009-.082.027H231c-.018.164 0 .328.055.492a.834.834 0 00.355.356c-.073.2-.109.42-.109.656 0 .31.018.62.054.93.055.31.083.62.083.93 0 .346-.046.62-.137.82.182.547.273 1.13.273 1.75 0 .219-.018.437-.054.656-.019.2-.028.42-.028.656 0 .2.073.365.219.492a.547.547 0 01.164.684c.255-.055.501-.127.738-.219.237-.109.483-.164.739-.164.145 0 .282.028.41.082.146.055.273.128.383.22a7.277 7.277 0 00-.055.3v.902c.018.164.036.347.055.547a3.212 3.212 0 01-.52.684c-.182.2-.31.455-.383.765-.273 0-.519.064-.738.192-.201.11-.392.237-.574.383l-.547.382c-.182.11-.383.164-.602.164-.273 0-.465-.036-.574-.109a1.125 1.125 0 01-.246-.273 2.87 2.87 0 00-.164-.247c-.037-.072-.128-.1-.274-.082a1.988 1.988 0 00-.218-.656 7.072 7.072 0 00-.356-.629c-.109-.2-.228-.4-.355-.601a3.133 3.133 0 01-.246-.657 5.627 5.627 0 01-.137-1.476 3.712 3.712 0 00-.246-1.477 11.045 11.045 0 00.109-1.558c0-.51-.018-1.012-.054-1.504-.019-.51-.037-1.03-.055-1.559a1.231 1.231 0 01-.246-.547c-.018-.218-.037-.428-.055-.628a1.801 1.801 0 00-.191-.165.42.42 0 01-.11-.218 1.493 1.493 0 00-.328-.055c-.255 0-.474.064-.656.191a.847.847 0 01-.465.165 1.49 1.49 0 01-.41-.055 1.387 1.387 0 00-.383-.055c-.109 0-.173.027-.191.082 0 .037-.037.073-.11.11-.054.036-.182.072-.382.109-.201.036-.429.073-.684.11l-.711.054a6.577 6.577 0 01-.438.027c-.291 0-.51-.054-.656-.164a9.634 9.634 0 00-.574-.41.924.924 0 00.055-.219.593.593 0 00-.164-.437c-.11-.128-.164-.237-.164-.328 0-.2.082-.356.246-.465.145-.11.228-.283.246-.52a6.562 6.562 0 011.285-.41 15.93 15.93 0 011.34-.219 29.91 29.91 0 001.34-.191 6.914 6.914 0 001.339-.355c.128.018.247.036.356.054h.383c.547 0 1.084-.054 1.613-.164a7.318 7.318 0 011.668-.191 3.51 3.51 0 01.875.11c.729-.11 1.449-.229 2.16-.356a41.512 41.512 0 012.242-.329c.365-.036.72-.063 1.067-.082.364-.036.729-.082 1.093-.136a.698.698 0 00.274-.082c.073-.055.109-.155.109-.301.164.073.347.11.547.11.31 0 .611-.055.903-.165a2.53 2.53 0 01.902-.164c.073 0 .137.01.191.028h.164c.128 0 .192-.055.192-.165.018-.127.109-.21.273-.246.128-.036.31-.063.547-.082l.738-.054c.274-.037.52-.073.739-.11.237-.054.41-.127.519-.218l.192-.301c.328.018.565.164.71.437.165.255.256.538.274.848.073.073.173.11.301.11.146-.019.273-.028.382-.028h.083zm13.436 14.137c0 .31-.082.583-.246.82-.146.219-.2.492-.164.82a1.904 1.904 0 00-.629.575c-.164.236-.319.483-.465.738a17.395 17.395 0 01-3.882 1.887c-1.368.492-2.78.738-4.239.738-.091 0-.173-.046-.246-.137a2.99 2.99 0 01-.219-.246 3.37 3.37 0 00-.246-.273.37.37 0 00-.273-.11.491.491 0 00-.301.082v-.11c.018-.017.027-.045.027-.081 0-.219-.027-.447-.082-.684a2.73 2.73 0 01-.082-.656c0-.255.046-.465.137-.629h.328c.183 0 .356-.01.52-.027a2.92 2.92 0 01.574-.055c.2 0 .383.055.547.164a9.17 9.17 0 002.844-.547 123.8 123.8 0 012.761-1.012c.146-.2.228-.419.246-.656.037-.255.11-.492.219-.71a6.081 6.081 0 00-1.449-.93c-.474-.237-1.03-.32-1.668-.246a2.742 2.742 0 00-1.23-.41c-.42-.037-.848-.092-1.286-.165a16.254 16.254 0 00-.355-.054 1.12 1.12 0 00-.356-.055.526.526 0 00-.273.082c-.073.036-.091.1-.055.191a.496.496 0 00-.383-.246.811.811 0 01-.382-.218c-.584-.037-1.094-.137-1.532-.301-.437-.183-.92-.383-1.449-.602a1.917 1.917 0 00-.437-.11 1.71 1.71 0 01-.383-.163 2.16 2.16 0 01-.793-.657 3.235 3.235 0 01-.465-.902 5.317 5.317 0 01-.273-1.066c-.055-.365-.11-.702-.164-1.012.164-.292.319-.592.464-.902.128-.31.237-.638.329-.985.109-.054.218-.1.328-.136a4.58 4.58 0 00.355-.137.308.308 0 01-.027-.137c0-.091.027-.182.082-.273.073-.091.091-.183.055-.274a22.49 22.49 0 001.148-1.12c.383-.402.711-.84.984-1.313.274-.091.493-.228.657-.41l.492-.547c.164-.2.346-.374.547-.52.2-.164.455-.264.765-.3a.792.792 0 01.301-.301c.128-.092.255-.174.383-.247.127-.072.246-.155.355-.246a.812.812 0 00.246-.382c.292 0 .556-.055.793-.165.256-.109.502-.227.739-.355.237-.128.474-.246.711-.355.255-.11.528-.165.82-.165.073 0 .146.01.219.028.073 0 .155.009.246.027a.896.896 0 01.246.465c.055.164.091.346.109.547.018.2.028.4.028.601.018.201.054.383.109.547-.164.31-.346.62-.547.93-.182.31-.428.547-.738.711h-.055a.493.493 0 01-.355-.082.676.676 0 00-.383-.11.297.297 0 00-.219.083l-.137.136a.626.626 0 01-.164.11c-.054.036-.136.036-.246 0-.255.09-.355.246-.301.465a1.696 1.696 0 00-.875.328 3.913 3.913 0 00-.656.574c-.2.2-.401.392-.601.574a1.224 1.224 0 01-.711.274 5.923 5.923 0 01-1.149 1.449 5.94 5.94 0 00-1.094 1.422c.055.146.092.3.11.465.018.163.045.337.082.519.164.219.355.41.574.574.237.164.465.328.684.492h.082c.364 0 .702.073 1.011.22.31.127.638.19.985.19a.926.926 0 00.465-.109c.474.11.938.2 1.394.274.474.073.948.127 1.422.164.237.036.474.054.711.054.255 0 .492.028.711.082.2.055.401.128.602.22.2.072.401.154.601.245.419.183.811.383 1.176.602.383.219.72.483 1.012.793.291.291.519.638.683 1.039.164.383.246.83.246 1.34zm48.448-26.442c0 .164-.009.328-.027.492 0 .165-.01.32-.028.465-.054.091-.164.128-.328.11a2.99 2.99 0 00-.355-.028.537.537 0 00-.246.055c-.055.018-.083.073-.083.164 0 .11.01.182.028.219a34.732 34.732 0 00-.465-.055.916.916 0 01-.438-.164 4.937 4.937 0 00-.738.219c-.219.091-.437.191-.656.3a7.78 7.78 0 01-.684.301 2.552 2.552 0 01-.738.164 1.514 1.514 0 01-.629.41 9.976 9.976 0 01-.793.247 4.743 4.743 0 00-.765.273 1.25 1.25 0 00-.575.438 3.566 3.566 0 00-1.148.3c-.365.165-.729.338-1.094.52-.346.182-.702.355-1.066.52a4.167 4.167 0 01-1.176.328c-.109.109-.246.2-.41.273a11.47 11.47 0 01-.465.219 3.559 3.559 0 00-.465.191.948.948 0 00-.355.301h-.055c-.073 0-.128-.018-.164-.055-.037-.036-.091-.054-.164-.054-.055 0-.091.009-.11.027-.437.2-.875.41-1.312.629a24.04 24.04 0 01-1.367.629c-.93.383-1.869.756-2.817 1.12-.948.366-1.859.812-2.734 1.34-.2.73-.365 1.477-.492 2.243a8.3 8.3 0 01-.684 2.16V17.7c-.182.347-.301.73-.355 1.149-.055.419-.082.82-.082 1.203v.41c.018.11.027.228.027.355.529-.145 1.039-.31 1.531-.492a24.91 24.91 0 011.532-.492c.255-.091.51-.155.765-.191.274-.037.538-.1.793-.192.201-.055.41-.127.629-.219.219-.109.428-.21.629-.3a18.422 18.422 0 011.668-.63 11.962 11.962 0 011.777-.41c.183-.145.383-.282.602-.41.219-.127.437-.19.656-.19.164 0 .301.026.41.081.31-.182.675-.346 1.094-.492.419-.146.811-.2 1.176-.164.091-.128.2-.21.328-.246a1.03 1.03 0 01.41-.082c.073 0 .137.009.191.027h.247c.182-.128.382-.219.601-.273a8.5 8.5 0 01.656-.137c.219-.037.429-.082.629-.137.219-.073.41-.182.575-.328.255.018.455.091.601.219.164.127.301.282.41.465.11.182.201.373.274.574.073.2.164.392.273.574a.912.912 0 01-.164.356 3.02 3.02 0 01-.246.218 3 3 0 00-.246.22.512.512 0 00-.137.3 6.37 6.37 0 00-1.859.273c-.584.183-1.167.392-1.75.63-.565.236-1.149.464-1.75.683-.584.2-1.185.328-1.805.383a.985.985 0 01-.355.218l-.411.137a1.26 1.26 0 00-.355.164.523.523 0 00-.246.274.783.783 0 00-.356-.082c-.309 0-.61.082-.902.246-.292.164-.62.246-.984.246-.146 0-.246-.01-.301-.028a.788.788 0 01-.41.356 3.827 3.827 0 01-.547.191 3.124 3.124 0 00-.547.164.781.781 0 00-.383.383.6.6 0 00-.191-.027h-.164a3.76 3.76 0 00-1.012.164c-.365.091-.629.273-.793.547a1.608 1.608 0 00-.383-.055 1.4 1.4 0 00-.683.164c-.201.091-.401.2-.602.328l-.601.383a2.07 2.07 0 01-.657.273 6.18 6.18 0 00-.984 2.325 25.289 25.289 0 00-.41 2.734l-.219 2.816a13.519 13.519 0 01-.438 2.598c.11.292.192.602.247.93.054.328.1.656.136.984l.11 1.04c.036.346.1.674.191.984.091.382.264.72.52 1.011.273.31.464.657.574 1.04.091.018.182.027.273.027.11.018.219.027.328.027.657 0 1.231-.128 1.723-.383.51-.255.984-.574 1.422-.957.437-.364.857-.765 1.258-1.203a9.63 9.63 0 011.34-1.121h.519c.128-.146.237-.3.328-.465.091-.164.192-.319.301-.465a1.93 1.93 0 01.383-.383c.146-.09.328-.154.547-.19a.977.977 0 01.383-.63c.2-.146.337-.364.41-.656a.302.302 0 00.136.027c.146 0 .256-.036.329-.11l.41-.382c.146-.146.3-.292.465-.437.182-.128.355-.256.519-.383l1.586-1.149a8.019 8.019 0 001.449-1.285c.018.018.046.028.082.028.146 0 .246-.046.301-.137.055-.091.182-.119.383-.082.109-.164.209-.328.301-.492a3.07 3.07 0 00.218-.575l.875.11c.292.036.584.055.875.055h.246a.974.974 0 00.247-.083c.218.347.337.72.355 1.122.018.382.064.765.137 1.148h-.082c0-.018-.019-.027-.055-.027a.437.437 0 00-.273.109 2.45 2.45 0 00-.247.219l-.273.273a2.355 2.355 0 01-.246.219 4.14 4.14 0 01-.629.328c-.219.11-.428.219-.629.328-.2.11-.392.237-.574.383a1.844 1.844 0 00-.438.602c-.364.145-.72.3-1.066.464-.328.164-.647.338-.957.52a3.37 3.37 0 00-.246.273.956.956 0 00-.164.301 3.09 3.09 0 00-1.231.738c-.31.329-.629.684-.957 1.067l-.027-.028c-.128 0-.21.046-.246.137-.018.091-.119.119-.301.082a11.95 11.95 0 01-1.094 1.067c-.382.328-.774.656-1.175.984l-1.204.984c-.401.347-.774.711-1.121 1.094a4.454 4.454 0 00-.683.274 1.07 1.07 0 00-.492.492h-.082c-.201 0-.347.045-.438.136-.073.092-.164.21-.273.356-.383.091-.775.191-1.176.3a4.63 4.63 0 01-1.231.165c-.291 0-.574-.055-.847-.164a4.106 4.106 0 01-.766-.438 6.438 6.438 0 01-.684-.547l-.574-.574a9.109 9.109 0 00-.437-1.148 2.836 2.836 0 01-.246-1.121c0-.091.009-.183.027-.274a.492.492 0 00.055-.219c0-.127-.046-.182-.137-.164-.073.019-.128-.027-.164-.136a5.162 5.162 0 01-.082-.63c0-.218-.018-.428-.055-.628-.054-.42-.127-.848-.219-1.285a24.748 24.748 0 00-.246-1.285.343.343 0 00.164-.192l.164-.219a8.478 8.478 0 01-.164-.492 2.42 2.42 0 01-.054-.52c0-.364.136-.637.41-.82a.41.41 0 00-.109-.3c-.055-.055-.083-.155-.083-.301 0-.037.01-.137.028-.301.036-.182.073-.383.109-.602.055-.218.1-.428.137-.628.036-.201.064-.338.082-.41a64.5 64.5 0 00.328-2.462c.091-.82.219-1.64.383-2.46a1.834 1.834 0 00-.711-.329c-.273-.09-.465-.21-.574-.355a1.55 1.55 0 01-.219-.492 2.006 2.006 0 01-.082-.52c0-.529.21-.948.629-1.258.419-.328.866-.52 1.34-.574.237-.638.41-1.285.519-1.941.128-.675.228-1.35.301-2.024l.219-2.05a19.19 19.19 0 01.328-2.051h-.164c-.365 0-.72.054-1.067.164-.346.11-.701.164-1.066.164h-.055c-.528-.42-.793-.92-.793-1.504 0-.346.073-.693.219-1.04a2.98 2.98 0 00.793-.437l.711-.546c.255-.201.51-.374.766-.52.255-.146.537-.237.847-.273a8.058 8.058 0 01.274-1.586 5.933 5.933 0 00.218-1.586c0-.11-.009-.22-.027-.328 0-.11-.018-.22-.055-.329.128-.164.21-.337.247-.52a2 2 0 00.082-.573c0-.22-.019-.429-.055-.63a6.637 6.637 0 00-.082-.628c.164-.073.292-.146.383-.219l.246-.246c.091-.073.2-.137.328-.191.128-.055.31-.082.547-.082.346 0 .638.073.875.218.255.128.474.301.656.52.182.219.337.465.465.738.146.274.282.547.41.82-.036.201-.118.347-.246.438-.128.091-.237.21-.328.355.036.292.073.575.109.848a3.04 3.04 0 010 .82c.182.092.356.137.52.137a1.3 1.3 0 00.738-.219c.237-.145.401-.346.492-.601h.055c.055 0 .1.018.137.054a.334.334 0 00.191.055h.109c.201-.182.42-.319.657-.41.237-.11.483-.21.738-.3.255-.092.501-.183.738-.274a3.48 3.48 0 00.711-.41.784.784 0 00.356.082c.182 0 .355-.037.519-.11.182-.073.356-.146.52-.218.164-.092.337-.174.519-.247a1.85 1.85 0 01.629-.109.45.45 0 01.137.027h.137c.127 0 .2-.045.218-.136a.537.537 0 000-.246 9.68 9.68 0 001.504-.493c.438-.2.921-.428 1.449-.683 0-.018.019-.027.055-.027.055 0 .091.027.109.082.019.054.028.1.028.136a.283.283 0 00.164-.273.662.662 0 01.137-.328 1.31 1.31 0 00.793-.083 4.42 4.42 0 00.519-.245c.164-.092.328-.174.492-.247.164-.072.328-.109.492-.109.146 0 .265.037.356.11.109-.055.219-.128.328-.22a.496.496 0 01.356-.163c.036 0 .063.009.082.027l.109.055c.091-.091.173-.164.246-.22.091-.054.137-.145.137-.272a7.309 7.309 0 001.859-.438 7.938 7.938 0 001.668-.93c.201.037.392.082.574.137.201.036.401.055.602.055.109.2.21.4.301.601.091.2.291.292.601.274.018.09.028.191.028.3.018.11.027.21.027.301zm20.136 27.89a1.143 1.143 0 01-.356.63 1.944 1.944 0 01-.601.355 3.388 3.388 0 01-.738.192 8.624 8.624 0 01-.657.027h-.273a1.019 1.019 0 00-.246-.027c-.091 0-.137.045-.137.136 0 .092-.046.155-.137.192a1.557 1.557 0 00-.273-.082 1.391 1.391 0 00-.274-.028c-.127 0-.255.01-.382.028-.11.018-.219.027-.328.027a.765.765 0 01-.329-.055 23.346 23.346 0 00-.164-.109 1.093 1.093 0 00-.136-.164.405.405 0 00-.192-.137c-.127-.054-.237-.064-.328-.027-.073.036-.191-.018-.355-.164a2.855 2.855 0 01-.575-.656 40.676 40.676 0 01-.437-.848 20.532 20.532 0 00-.465-.875 3.494 3.494 0 00-.574-.766h-.219c-.328 0-.556.137-.684.41a2.488 2.488 0 01-.273-.19 1.142 1.142 0 00-.301-.22c-.419.128-.857.237-1.312.328a6.965 6.965 0 01-1.367.137h-.383a1.3 1.3 0 01-.356-.055 2.15 2.15 0 00-.492.274.91.91 0 01-.492.137.884.884 0 01-.383-.11c-.109 0-.164.046-.164.137.018.091-.036.137-.164.137h-.246c-.255 0-.511.009-.766.027a9.643 9.643 0 01-.738.027 4.39 4.39 0 01-1.066-.136.577.577 0 01-.301.082.344.344 0 00-.164.191l-.11.219a.685.685 0 01-.164.164c-.054.036-.136.046-.246.027a.847.847 0 01-.273.52c-.146.127-.219.319-.219.574-.201.11-.365.246-.492.41-.128.164-.255.337-.383.52a5.737 5.737 0 01-.41.52 1.292 1.292 0 01-.492.382c-.091.11-.119.283-.082.52a3.15 3.15 0 01-.739.437 2.051 2.051 0 01-.82.191c-.529 0-.893-.282-1.094-.847 0-.182.019-.374.055-.574.018-.22.055-.42.109-.602.055-.2.137-.374.246-.52a.922.922 0 01.465-.355c0-.164-.054-.273-.164-.328-.109-.073-.155-.191-.136-.355a4.39 4.39 0 001.285-.93c.364-.383.692-.784.984-1.203l.93-1.313c.31-.437.656-.83 1.039-1.176v-.574a4.188 4.188 0 001.066-1.969c.201-.036.328-.127.383-.273a1.15 1.15 0 00.109-.52c.092 0 .146-.036.164-.109.037-.091.119-.118.247-.082.164-.438.346-.838.546-1.203l.602-1.094c.201-.383.374-.775.52-1.176.164-.4.282-.847.355-1.34.255-.018.392-.136.41-.355.037-.237.073-.447.11-.629a2.32 2.32 0 00.601-.902c.146-.346.274-.702.383-1.067.109-.382.228-.756.355-1.12a3.32 3.32 0 01.602-1.012v-.082c0-.092-.037-.146-.109-.165-.073-.036-.11-.1-.11-.19.018-.02.028-.037.028-.056a.97.97 0 00.492-.437.939.939 0 01.492-.465c.383.31.72.501 1.012.574.291.055.674.1 1.148.137.237.255.365.565.383.93.036.346.1.692.191 1.039.146.583.301 1.157.465 1.722.182.547.319 1.112.41 1.696.055.346.155.674.301.984.146.31.246.629.301.957.036.255.036.547 0 .875-.037.31 0 .584.109.82l.192.438c.091.2.164.41.218.629.073.219.137.437.192.656.146.547.273 1.14.383 1.777.127.62.319 1.185.574 1.696.091.182.228.31.41.383.2.072.419.127.656.164.237.018.465.027.684.027.237-.018.437-.027.601-.027h.274c.109 0 .219.018.328.054a.88.88 0 01.109.383.657.657 0 01-.218.52.568.568 0 00-.219.437c0 .091.036.192.109.3a1.458 1.458 0 00-.328-.026c-.419 0-.829.072-1.23.218.145.31.337.575.574.793.255.2.519.392.793.575a.905.905 0 01.574-.22c.219 0 .419.055.602.165.2.091.41.137.628.137.165 0 .283-.028.356-.082.146.164.264.337.355.52.092.163.21.318.356.464zm-8.559-4.374c-.036-.31-.1-.529-.191-.656a2.853 2.853 0 01-.192-.52 5.628 5.628 0 01-.164-.82 6.243 6.243 0 00-.109-.848c-.128-.62-.273-1.24-.437-1.86a12.248 12.248 0 00-.575-1.804c.073-.11.11-.21.11-.3v-.083a1.64 1.64 0 01-.356-.656 46.538 46.538 0 00-.219-.793 2.875 2.875 0 00-.246-.738 1.193 1.193 0 00-.464-.574.841.841 0 00-.083.382c0 .128.01.246.028.356.036.11.055.228.055.355a.877.877 0 00-.411.438.889.889 0 01-.382.437 7.696 7.696 0 01-.629 1.668 33.73 33.73 0 01-.875 1.532 41.47 41.47 0 00-.848 1.558 8.339 8.339 0 00-.656 1.613 1.274 1.274 0 00-.492.63c-.073.255-.11.51-.11.765.164.091.347.146.547.164h.629c.2 0 .392.018.574.055a.95.95 0 01.492.273c.237-.073.493-.118.766-.137.292-.036.529-.118.711-.246.365.128.756.192 1.176.192.218 0 .428-.018.629-.055a6.23 6.23 0 00.629-.137c.164.037.291.1.382.192.091.073.228.1.41.082a.435.435 0 00.165-.219.473.473 0 01.136-.246zm45.566 1.613c-.037.274-.137.483-.301.63a3.059 3.059 0 01-.519.41 1.407 1.407 0 00-.274-.028 1.019 1.019 0 00-.246-.027 4.729 4.729 0 00-1.613.218 8.509 8.509 0 01-1.531.356 2.667 2.667 0 01-.52.055 1.359 1.359 0 00-.465.027c-.583.091-1.203.164-1.859.219a36.07 36.07 0 00-1.969.218c-.656.073-1.303.174-1.941.301a8.81 8.81 0 00-1.75.492l-.164-.11a.264.264 0 00-.192-.081 1.63 1.63 0 00-.519.082 1.144 1.144 0 01-.493.055 2.208 2.208 0 01-.601.246c-.201.036-.41.073-.629.11a3.49 3.49 0 00-.602.108 1.59 1.59 0 00-.574.301 1.218 1.218 0 00-.547-.11c-.2-.017-.337-.09-.41-.218-.419.2-.866.328-1.34.383-.455.055-.92.073-1.394.055a9.002 9.002 0 01-1.067-.137 9.668 9.668 0 01-1.203-.3 9.003 9.003 0 01-1.121-.493 2.333 2.333 0 01-.793-.711 1.8 1.8 0 01-.273-.602.748.748 0 00-.383-.492c.055-.42.118-.83.191-1.23.073-.401.146-.811.219-1.23a13.156 13.156 0 001.969-2.079c.346-.164.665-.364.957-.601.31-.237.611-.474.902-.711.31-.256.611-.502.903-.739.309-.237.638-.446.984-.629a.763.763 0 01.219-.3 3.68 3.68 0 01.328-.246c.109-.092.209-.183.301-.274a.944.944 0 00.191-.383 6.332 6.332 0 001.668-1.449 4.47 4.47 0 00.93-1.969 2.298 2.298 0 00-1.067-.492 8.283 8.283 0 00-1.203-.191 12.068 12.068 0 00-1.148 0 8.464 8.464 0 01-1.176-.028 5.7 5.7 0 01-1.258.247l-1.258.109a7.438 7.438 0 00-1.258.164 3.68 3.68 0 00-1.175.438.898.898 0 01-.219-.028.61.61 0 00-.191-.027 3.375 3.375 0 00-1.641.355 113.6 113.6 0 00-1.504.711.43.43 0 00-.055.164c0 .11.019.219.055.328a.57.57 0 01.082.301c-.018.018-.027.037-.027.055 0 .018-.009.036-.028.055a.945.945 0 01-.082.246 1.822 1.822 0 01-.082.246 5.87 5.87 0 00-.328 1.722 18.01 18.01 0 000 1.395c.018.456.018.92 0 1.394a7.672 7.672 0 01-.273 1.641c.091.438.173.902.246 1.395.073.474.164.947.273 1.421.11.474.237.94.383 1.395.164.438.374.857.629 1.258-.018.036-.009.064.027.082a.244.244 0 00.11.027h.218c.092 0 .128.037.11.11a.68.68 0 01.082.164.312.312 0 00.109.109c.037.055.037.128 0 .219a2.387 2.387 0 01-.273 1.011c-.164.31-.265.648-.301 1.012a2.496 2.496 0 01-.602.082 1.576 1.576 0 01-.82-.273 3.065 3.065 0 01-.656-.547 17.717 17.717 0 01-.574-.656 3.148 3.148 0 00-.602-.602 41.683 41.683 0 01-.383-1.695c-.109-.62-.301-1.149-.574-1.586.073-.164.109-.365.109-.602a3.462 3.462 0 00-.109-1.066 3.693 3.693 0 01-.055-1.094c0-.2.019-.4.055-.601.055-.201.091-.401.109-.602.019-.31-.018-.61-.109-.902a2.983 2.983 0 01-.082-.903 2.75 2.75 0 01.082-.41 1.33 1.33 0 01.219-.383 1.098 1.098 0 01-.082-.629c.018-.31.054-.601.109-.875.055-.273.091-.546.109-.82a2.94 2.94 0 00-.027-.41 2.628 2.628 0 00-.082-.41l-.246-.082a.727.727 0 00-.328.082 1.279 1.279 0 00-.246.191l-.192.192a.291.291 0 01-.164.054h-.136a.246.246 0 00-.11-.027c-.036 0-.109.036-.219.11a3.747 3.747 0 01-.355.245 4.539 4.539 0 00-.383.247 1.296 1.296 0 01-.301.136 1.21 1.21 0 01-.492-.191 4.92 4.92 0 00-.328-.3 1.382 1.382 0 00-.301-.274.523.523 0 00-.41-.11.792.792 0 01-.082-.355 1.364 1.364 0 010-.383v-.438a1.58 1.58 0 01.52-.574c.2-.164.419-.3.656-.41l.711-.328c.237-.11.456-.246.656-.41h.246c.328.018.611-.046.848-.192.255-.145.492-.31.711-.492l.656-.601c.237-.2.492-.356.766-.465.2.091.41.173.629.246.218.055.446.091.683.11.237 0 .483-.037.738-.11a1.09 1.09 0 00.602-.41c.091.036.164.064.219.082h.246c.273.018.547-.018.82-.11.274-.109.538-.237.793-.382.365.018.72 0 1.067-.055.364-.073.72-.146 1.066-.219a26.5 26.5 0 011.066-.191c.365-.073.73-.1 1.094-.082a7.252 7.252 0 001.777-.164 6.46 6.46 0 011.778-.137c.419.018.829.055 1.23.11.42.036.839.045 1.258.027.237.109.447.21.629.3.201.073.447.092.738.055a9.55 9.55 0 011.586 1.723v.465a4.69 4.69 0 01-.219 1.23c-.127.401-.282.802-.464 1.203-.164.383-.347.766-.547 1.149-.201.364-.392.729-.574 1.093a563.573 563.573 0 01-3.555 3.2 73.942 73.942 0 01-3.664 3.062 1.97 1.97 0 01-.164.492 1.95 1.95 0 00-.11.465.69.69 0 00.028.219c.127.036.237.11.328.219.109.09.146.218.109.383h.246c.091 0 .137.036.137.109l.438.027c.692.037 1.385.018 2.078-.055a80.84 80.84 0 002.078-.246 94.336 94.336 0 012.105-.246 19.992 19.992 0 012.078-.164c.164-.054.338-.1.52-.136.182-.037.346-.11.492-.22h.082c.128 0 .219.037.274.11a.512.512 0 00.3.137.735.735 0 00.274-.055 2.15 2.15 0 01.328-.082c.255-.073.519-.118.793-.137.292-.018.574-.045.848-.082a46.051 46.051 0 013.144-.164 16.602 16.602 0 003.117-.41.744.744 0 00.383.274c.164.036.337.082.52.136.182.037.346.082.492.137a.494.494 0 01.328.328zm18.03-12.824a1.924 1.924 0 01-.355.656l-.465.574a3.402 3.402 0 00-.383.602c-.091.2-.118.438-.082.71h-.137a.445.445 0 00-.136-.026c-.292 0-.52.072-.684.218a1.859 1.859 0 01-.601.328 1.523 1.523 0 00-.137-.3.417.417 0 00-.246-.22 16.41 16.41 0 01-1.313.22c-.437.036-.875.09-1.312.164a3.69 3.69 0 00-.602.164c-.2.055-.41.11-.629.164a1.117 1.117 0 01-.355.055 1.343 1.343 0 00-.383 0 22.04 22.04 0 00-1.422.109 3.08 3.08 0 00-1.367.41 5.426 5.426 0 00-.574-.082 6.625 6.625 0 00-.602-.027c-.437 0-.92.045-1.449.136-.51.073-.966.228-1.367.465a1.703 1.703 0 00-.629-.11c-.037 0-.064.01-.082.028h-.082c-.018.164 0 .328.054.492a.837.837 0 00.356.356c-.073.2-.109.42-.109.656 0 .31.018.62.054.93.055.31.082.62.082.93 0 .346-.045.62-.136.82.182.547.273 1.13.273 1.75 0 .219-.018.437-.055.656-.018.2-.027.42-.027.656 0 .2.073.365.219.492.146.11.218.265.218.465a.49.49 0 01-.054.22c.255-.056.501-.128.738-.22.237-.109.483-.164.738-.164.146 0 .283.028.411.082.145.055.273.128.382.22a9.61 9.61 0 00-.054.3v.902c.018.164.036.347.054.547a3.241 3.241 0 01-.519.684c-.182.2-.31.455-.383.765-.273 0-.52.064-.738.192a3.99 3.99 0 00-.575.383l-.546.382a1.15 1.15 0 01-.602.164c-.273 0-.465-.036-.574-.109a1.085 1.085 0 01-.246-.273 3.126 3.126 0 00-.164-.247c-.037-.072-.128-.1-.274-.082a1.967 1.967 0 00-.219-.656 6.824 6.824 0 00-.355-.629c-.109-.2-.228-.4-.355-.601a3.195 3.195 0 01-.247-.657 5.67 5.67 0 01-.136-1.476 3.712 3.712 0 00-.246-1.477c.036-.255.063-.51.082-.765a12.1 12.1 0 00.027-.793c0-.51-.018-1.012-.055-1.504l-.054-1.559a1.231 1.231 0 01-.246-.547l-.055-.628a1.817 1.817 0 00-.192-.165.418.418 0 01-.109-.218 1.493 1.493 0 00-.328-.055c-.255 0-.474.064-.656.191a.847.847 0 01-.465.165 1.5 1.5 0 01-.41-.055 1.393 1.393 0 00-.383-.055c-.109 0-.173.027-.192.082 0 .037-.036.073-.109.11-.055.036-.182.072-.383.109-.2.036-.428.073-.683.11l-.711.054a6.577 6.577 0 01-.438.027c-.291 0-.51-.054-.656-.164a9.634 9.634 0 00-.574-.41.904.904 0 00.054-.219.589.589 0 00-.164-.437c-.109-.128-.164-.237-.164-.328 0-.2.082-.356.246-.465.146-.11.228-.283.247-.52a6.562 6.562 0 011.285-.41 15.93 15.93 0 011.34-.219c.455-.054.902-.118 1.339-.191a6.905 6.905 0 001.34-.355c.128.018.246.036.356.054h.383c.546 0 1.084-.054 1.613-.164a7.318 7.318 0 011.668-.191 3.521 3.521 0 01.875.11c.729-.11 1.449-.229 2.16-.356a41.367 41.367 0 012.242-.329c.365-.036.72-.063 1.067-.082.364-.036.729-.082 1.093-.136a.698.698 0 00.274-.082c.073-.055.109-.155.109-.301.164.073.346.11.547.11.31 0 .611-.055.902-.165a2.54 2.54 0 01.903-.164.61.61 0 01.191.028h.164c.128 0 .192-.055.192-.165.018-.127.109-.21.273-.246.128-.036.31-.063.547-.082l.738-.054c.274-.037.52-.073.738-.11.237-.054.411-.127.52-.218l.191-.301c.328.018.565.164.711.437.164.255.255.538.274.848.073.073.173.11.3.11a3.01 3.01 0 01.383-.028h.082zm16.035 4.813a14.98 14.98 0 01-.219.519 2.374 2.374 0 00-.164.547 1.65 1.65 0 01-.438.219c-.145.036-.3.082-.464.136a2.018 2.018 0 00-.465.164.623.623 0 00-.301.274 3.894 3.894 0 00-.082.765c0 .31.055.575.164.793a2.359 2.359 0 00-.109.52 5.014 5.014 0 00-.028.52c0 .601.073 1.203.219 1.804.146.584.228 1.176.246 1.777 0 .092-.009.192-.027.301-.018.11-.028.21-.028.301 0 .383.146.638.438.766a.487.487 0 00-.082.246c0 .146.018.273.055.383a.775.775 0 01.027.355c.091.182.182.346.273.492.091.128.155.292.192.492a3.703 3.703 0 01-.465.711c-.182.2-.31.456-.383.766a1.019 1.019 0 00-.246-.027.491.491 0 00-.301.082.957.957 0 00-.191.191 1.078 1.078 0 01-.137.246.446.446 0 01-.219.192h-.082a.372.372 0 01-.246-.028.512.512 0 00-.164-.027.91.91 0 00-.219.055 1.555 1.555 0 01-.3-.657 3.135 3.135 0 01-.082-.71c0-.256.036-.484.109-.684-.201-.164-.328-.41-.383-.738a6.224 6.224 0 00-.137-.82 22.131 22.131 0 00-.519-1.97 8.88 8.88 0 01-.328-1.968 10.523 10.523 0 01-.028-.739v-1.42c0-.237.01-.465.028-.684 0-.164.009-.319.027-.465.037-.164.055-.328.055-.492 0-.219-.073-.428-.219-.629a12.392 12.392 0 00-3.691.711 30.819 30.819 0 00-3.446 1.45 9.696 9.696 0 00-.136 1.23c-.019.4-.028.81-.028 1.23v1.203c0 .456.019.839.055 1.149.091.528.355.939.793 1.23.456.274.911.483 1.367.63-.018.273-.073.51-.164.71-.091.182-.21.355-.355.52a5.035 5.035 0 01-.438.437 6.34 6.34 0 00-.492.492 1.53 1.53 0 00-.438-.191 1.902 1.902 0 00-.464-.055l-.493-.055a2.39 2.39 0 01-.492-.109l-.601-.82c-.201-.274-.42-.547-.657-.82v-.247a3.8 3.8 0 00-.273-1.422 7.636 7.636 0 01-.41-1.394c.054-.164.091-.328.109-.492a4.76 4.76 0 00.028-.52c0-.364-.019-.72-.055-1.066a6.68 6.68 0 01.027-1.04h-.137c-.164 0-.337.046-.519.137a3.833 3.833 0 00-.547.274l-.492.273a.884.884 0 01-.383.11.517.517 0 01-.164-.028.61.61 0 00-.191-.027.693.693 0 00-.329.11c-.127.072-.264.154-.41.245l-.492.22a1.217 1.217 0 01-.492.109c-.255 0-.511-.11-.766-.328a1.077 1.077 0 01-.027-.41v-.41c0-.147-.027-.302-.082-.466.128-.237.301-.419.519-.547a3.92 3.92 0 01.657-.382c.218-.128.446-.246.683-.356.237-.127.438-.291.602-.492h.164c.255 0 .483-.055.684-.164.218-.11.464-.155.738-.137.091-.036.155-.173.191-.41l.11.027c.401 0 .756-.136 1.066-.41.2-1.13.365-2.27.492-3.418a31.08 31.08 0 00.192-3.445.588.588 0 00-.11-.328 1.717 1.717 0 01-.054-.41v-.41c0-.201.009-.41.027-.63a2.8 2.8 0 01.137-.656 1.1 1.1 0 01.574-.164c.237 0 .465.037.683.11.237.054.465.1.684.136.164.165.283.347.355.547.092.2.146.41.165.63.018.2.018.41 0 .628v.602c0 .4.045.793.136 1.175.091.383.137.757.137 1.122a.262.262 0 01-.109.218c-.055.037-.082.155-.082.356 0 .2.018.41.054.629.037.218.055.437.055.656 0 .255-.037.52-.109.793-.073.273-.137.538-.192.793a45.613 45.613 0 003.363-.41 16.083 16.083 0 003.282-.875.385.385 0 00.027-.164c0-.11-.009-.22-.027-.328a2.08 2.08 0 01-.028-.356c0-.219.073-.392.219-.52a14.53 14.53 0 01-.191-1.53 21.213 21.213 0 01-.055-1.532v-1.559c0-.51-.009-1.02-.027-1.53a.857.857 0 01.464-.138.96.96 0 01.547.165c.183.09.392.136.629.136a.911.911 0 00.41-.082c.201.183.338.42.411.711.072.292.136.593.191.902l.164.93c.073.292.21.529.41.711l.028.082c0 .073-.037.128-.11.164-.073.037-.109.11-.109.219v.11c.073.291.127.592.164.902.036.31.064.629.082.957.036.31.082.62.137.93.054.291.155.564.3.82.092-.018.21-.028.356-.028.364 0 .647.128.848.383.218.237.41.483.574.738z" fill="#000"/></svg>